<?xml version="1.0" standalone="no"?>
<!DOCTYPE svg PUBLIC "-//W3C//DTD SVG 20010904//EN"
 "http://www.w3.org/TR/2001/REC-SVG-20010904/DTD/svg10.dtd">
<svg version="1.0" xmlns="http://www.w3.org/2000/svg"
 width="4000.000000pt" height="4001.000000pt" viewBox="0 0 4000.000000 4001.000000"
 preserveAspectRatio="xMidYMid meet">

<g transform="translate(0.000000,4001.000000) scale(0.100000,-0.100000)"
fill="#000000" stroke="none">
<path d="M0 20005 l0 -20005 20000 0 20000 0 0 20005 0 20005 -20000 0 -20000
0 0 -20005z m39990 0 l0 -19995 -19990 0 -19990 0 0 19995 0 19995 19990 0
19990 0 0 -19995z"/>
<path d="M18257 36445 c-118 -24 -170 -55 -282 -168 -247 -248 -502 -705 -628
-1127 -124 -410 -148 -745 -72 -971 34 -98 62 -143 149 -238 91 -99 112 -150
102 -252 -12 -135 -102 -353 -340 -829 -289 -576 -488 -919 -1116 -1920 -664
-1057 -826 -1340 -1179 -2050 -389 -783 -645 -1384 -983 -2315 l-22 -60 -23
152 c-149 1015 -487 1848 -1017 2513 -128 161 -416 448 -576 576 -521 415
-1137 687 -1720 759 -196 24 -166 48 -243 -192 -122 -379 -180 -663 -208
-1017 -15 -186 -7 -581 15 -761 104 -852 467 -1697 1085 -2525 488 -654 1176
-1326 1913 -1868 l96 -71 -19 -88 c-11 -48 -42 -207 -69 -353 -718 -3829 -292
-7882 1265 -12034 908 -2422 2209 -4869 3784 -7116 283 -405 666 -926 678
-924 12 2 412 339 413 348 0 4 -76 110 -168 235 -1515 2040 -2836 4358 -3814
6691 -107 256 -120 294 -128 370 -19 180 -32 438 -39 775 -47 2080 308 4212
994 5960 37 94 71 180 76 192 l8 23 53 -21 c758 -304 1492 -491 2188 -559 322
-31 780 -29 1074 5 757 88 1394 345 1941 782 132 105 340 307 477 460 l99 112
-89 118 c-404 535 -1069 947 -1787 1108 -656 147 -1349 102 -2129 -137 -332
-101 -687 -252 -1149 -486 -4 -2 21 45 56 105 326 554 698 1080 1086 1533 362
424 805 863 1217 1206 562 468 1157 865 1832 1223 207 109 459 213 992 406
620 225 930 306 1170 307 173 1 269 -26 427 -118 143 -84 223 -160 223 -212 0
-14 -12 -50 -27 -81 -26 -52 -28 -65 -27 -171 1 -141 32 -269 98 -405 80 -163
173 -234 355 -271 124 -24 315 -15 436 21 201 59 289 150 350 360 54 189 42
340 -36 441 -73 95 -249 228 -409 308 -117 59 -172 75 -270 81 -213 11 -602
187 -574 259 3 7 22 22 42 33 141 78 633 96 987 37 359 -60 887 -263 1032
-397 50 -46 53 -61 18 -89 -114 -89 -219 -646 -171 -900 33 -172 88 -273 225
-408 171 -169 361 -288 499 -312 165 -28 516 43 723 147 218 109 386 280 464
472 53 132 70 326 40 468 -49 229 -148 412 -310 570 -246 240 -591 336 -915
255 -112 -29 -231 -23 -345 15 -125 42 -718 337 -763 380 -11 10 -1 13 50 19
146 14 482 37 913 60 253 14 494 28 535 31 l76 6 134 -168 c217 -270 327 -377
510 -495 170 -111 347 -187 552 -237 175 -43 293 -55 477 -48 317 12 563 92
822 266 141 94 236 178 328 287 95 115 164 229 207 342 99 264 83 498 -47 719
-43 73 -179 208 -253 252 -84 50 -216 97 -362 128 -120 25 -146 27 -374 28
-201 0 -260 -3 -330 -18 -363 -78 -903 -351 -1119 -566 -138 -136 -179 -143
-965 -148 -357 -3 -592 -1 -598 5 -32 32 537 354 864 488 97 40 127 48 213 54
119 9 222 43 395 130 285 143 522 337 600 490 28 55 57 159 65 230 8 81 -13
188 -54 274 -96 202 -321 305 -549 251 -317 -75 -694 -423 -808 -746 -21 -59
-27 -99 -31 -194 -4 -101 -8 -125 -26 -153 -46 -70 -189 -161 -612 -389 -813
-439 -997 -506 -1898 -689 -707 -143 -1031 -217 -1402 -318 -110 -30 -201 -53
-203 -51 -2 1 104 85 235 186 351 269 564 445 1339 1106 137 116 302 255 367
307 l119 96 160 0 c295 0 484 46 774 189 486 238 688 400 897 716 362 549 352
1149 -23 1402 -88 59 -229 104 -325 104 -254 0 -755 -301 -1140 -686 -281
-281 -471 -555 -556 -805 -30 -87 -33 -106 -33 -220 -1 -115 1 -132 29 -205
90 -244 16 -343 -655 -880 -1060 -848 -1760 -1321 -2604 -1757 -491 -254 -798
-433 -1176 -683 -645 -428 -1104 -806 -1683 -1387 -254 -254 -328 -323 -323
-301 3 15 10 75 15 133 44 465 4 902 -120 1327 -119 406 -333 812 -597 1132
-149 180 -449 454 -475 433 -372 -290 -625 -553 -850 -882 -383 -564 -594
-1218 -648 -2010 -14 -212 -6 -659 16 -880 52 -534 162 -1068 329 -1605 88
-282 242 -701 302 -817 13 -24 11 -34 -22 -110 -686 -1594 -1097 -3517 -1184
-5537 -5 -129 -11 -236 -13 -238 -2 -1 -38 104 -80 235 -674 2099 -1045 4129
-1127 6181 -13 324 -13 1223 0 1541 44 1062 160 2045 361 3040 87 434 82 412
99 421 8 4 100 17 205 29 596 67 1254 215 1866 420 1233 411 2174 1039 2786
1858 316 422 554 922 684 1437 30 117 89 397 89 420 0 11 -129 69 -280 127
-192 73 -497 143 -760 175 -179 21 -609 24 -780 4 -661 -75 -1237 -286 -1815
-666 -372 -245 -739 -571 -1098 -977 -42 -48 -77 -86 -77 -83 0 3 31 84 70
180 243 607 489 1150 784 1730 401 787 592 1068 1025 1509 617 626 940 882
1195 946 97 24 242 26 374 5 108 -18 152 -34 187 -69 21 -22 25 -34 25 -89 0
-38 8 -88 21 -125 58 -173 280 -411 442 -475 187 -73 543 55 731 264 63 70 93
131 107 219 32 192 -65 483 -188 560 -118 75 -441 139 -635 126 -66 -4 -110
-14 -175 -40 -122 -47 -211 -61 -398 -61 -238 0 -280 27 -193 121 150 162 660
396 1023 468 365 72 855 88 966 30 39 -20 42 -29 23 -66 -36 -69 3 -337 83
-578 91 -273 213 -435 402 -533 138 -72 345 -124 527 -134 96 -5 121 -3 180
15 189 58 491 291 627 483 231 326 244 694 35 1002 -118 173 -310 322 -515
397 -207 75 -458 81 -659 15 -92 -31 -210 -95 -289 -159 -168 -133 -200 -141
-610 -141 -331 0 -575 11 -575 25 0 18 283 177 950 535 233 126 429 228 435
228 5 -1 113 -51 239 -112 319 -153 471 -199 737 -222 373 -32 788 74 1095
279 295 198 517 492 628 832 189 582 -37 1084 -539 1201 -170 39 -390 13 -640
-74 -335 -118 -552 -270 -808 -566 -221 -257 -380 -501 -437 -675 -14 -43 -36
-84 -58 -108 -53 -58 -218 -164 -409 -261 -262 -133 -868 -411 -884 -405 -13
5 44 109 123 226 206 306 511 669 596 707 20 9 48 22 62 28 36 18 183 161 253
247 78 97 185 261 241 370 116 226 139 398 76 577 -73 208 -256 343 -465 343
-130 0 -239 -47 -347 -149 -211 -198 -361 -536 -375 -848 -7 -150 5 -220 58
-330 24 -51 39 -97 39 -121 0 -87 -95 -237 -455 -717 -283 -377 -408 -529
-585 -705 -175 -176 -319 -295 -680 -563 -667 -496 -939 -707 -1220 -946 -96
-82 -176 -148 -178 -146 -1 1 63 128 142 281 169 325 353 711 636 1334 111
245 240 524 287 621 l84 175 101 45 c326 143 492 284 770 654 236 315 326 498
383 779 55 270 55 507 1 732 -113 461 -438 714 -819 639z m-7297 -6585 c325
-107 626 -269 921 -497 142 -109 417 -382 533 -528 563 -706 873 -1614 968
-2835 8 -105 13 -337 12 -640 0 -460 -1 -478 -23 -570 -13 -52 -26 -101 -30
-107 -7 -14 -110 63 -341 253 -738 607 -1371 1330 -1770 2024 -306 532 -496
1079 -566 1635 -22 173 -26 625 -6 785 22 180 74 464 97 528 6 16 24 12 205
-48z m7310 -1741 c144 -13 262 -31 413 -66 99 -22 117 -29 117 -45 0 -37 -109
-347 -175 -495 -534 -1213 -1750 -2086 -3530 -2536 -342 -87 -670 -149 -1117
-212 -23 -3 -38 -1 -38 5 0 25 43 180 50 180 4 0 51 81 104 179 501 938 1070
1664 1706 2178 573 462 1250 750 1910 811 136 13 426 14 560 1z m-1558 -3975
c551 -647 757 -1520 582 -2474 -58 -315 -184 -722 -253 -818 -23 -31 -121
-176 -219 -322 -252 -376 -444 -702 -695 -1179 -55 -104 -66 -121 -75 -105 -5
11 -37 102 -72 204 -199 593 -320 1164 -372 1750 -17 201 -14 682 6 873 89
847 375 1499 898 2042 61 63 114 115 119 115 4 0 41 -39 81 -86z m3058 -4399
c599 -79 1103 -309 1533 -698 48 -44 87 -83 87 -87 0 -13 -219 -203 -333 -288
-997 -746 -2446 -844 -4132 -280 -141 47 -529 192 -543 203 -1 1 11 32 28 68
33 72 37 76 221 189 842 519 1666 830 2379 897 63 6 133 13 155 15 85 9 496
-4 605 -19z"/>
</g>
</svg>
